<svg width="14" height="14" viewBox="0 0 14 14" fill="none" xmlns="http://www.w3.org/2000/svg">
<path d="M6.66675 0.497803C5.08373 0.497868 3.55239 1.06121 2.34672 2.08703C1.14106 3.11286 0.339747 4.53422 0.086168 6.09679C-0.167411 7.65936 0.143291 9.26118 0.962679 10.6156C1.78207 11.9701 3.05667 12.9888 4.55843 13.4895C4.89176 13.5478 5.01676 13.3478 5.01676 13.1728C5.01676 13.0145 5.00842 12.4895 5.00842 11.9311C3.33341 12.2395 2.90008 11.5228 2.76675 11.1478C2.6188 10.7831 2.38426 10.4599 2.08341 10.2061C1.85008 10.0811 1.51675 9.7728 2.07507 9.76448C2.28826 9.78762 2.49274 9.8618 2.67117 9.98075C2.8496 10.0997 2.99672 10.2599 3.10008 10.4478C3.19126 10.6116 3.31387 10.7558 3.46087 10.8721C3.60788 10.9885 3.7764 11.0746 3.95677 11.1257C4.13714 11.1768 4.32582 11.1918 4.512 11.1699C4.69818 11.1479 4.87819 11.0894 5.04173 10.9978C5.07059 10.6589 5.22164 10.342 5.46675 10.1062C3.98341 9.93949 2.43341 9.36446 2.43341 6.81449C2.42404 6.15192 2.66854 5.51087 3.11675 5.02282C2.91293 4.44697 2.93678 3.81501 3.18341 3.25616C3.18341 3.25616 3.74173 3.08115 5.01675 3.93949C6.1076 3.63947 7.25922 3.63947 8.35008 3.93949C9.62507 3.07282 10.1834 3.25616 10.1834 3.25616C10.4301 3.815 10.4539 4.44697 10.2501 5.02282C10.6996 5.51004 10.9443 6.15164 10.9334 6.81449C10.9334 9.3728 9.37507 9.93949 7.89175 10.1062C8.05085 10.2674 8.17338 10.461 8.25103 10.6738C8.32867 10.8866 8.35961 11.1137 8.34175 11.3395C8.34175 12.2312 8.33341 12.9478 8.33341 13.1728C8.33341 13.3478 8.45841 13.5562 8.79174 13.4895C10.2909 12.9847 11.5618 11.9636 12.3777 10.6085C13.1936 9.25336 13.5013 7.65235 13.246 6.09129C12.9907 4.53023 12.1889 3.11072 10.9837 2.08614C9.77859 1.06157 8.24855 0.498626 6.66675 0.497803Z" fill="#292F36"/>
</svg>
