<svg width="32" height="32" viewBox="0 0 32 32" fill="none" xmlns="http://www.w3.org/2000/svg">
<g id="icon-smartphone">
<g id="Shape">
<path d="M16 22.6667C15.2636 22.6667 14.6666 23.2636 14.6666 24C14.6666 24.7364 15.2636 25.3333 16 25.3333H16.0133C16.7497 25.3333 17.3466 24.7364 17.3466 24C17.3466 23.2636 16.7497 22.6667 16.0133 22.6667H16Z" fill="#292F36"/>
<path fill-rule="evenodd" clip-rule="evenodd" d="M9.33331 1.33334C7.12417 1.33334 5.33331 3.1242 5.33331 5.33334V26.6667C5.33331 28.8758 7.12417 30.6667 9.33331 30.6667H22.6666C24.8758 30.6667 26.6666 28.8758 26.6666 26.6667V5.33334C26.6666 3.1242 24.8758 1.33334 22.6666 1.33334H9.33331ZM7.99998 5.33334C7.99998 4.59696 8.59693 4.00001 9.33331 4.00001H22.6666C23.403 4.00001 24 4.59696 24 5.33334V26.6667C24 27.4031 23.403 28 22.6666 28H9.33331C8.59693 28 7.99998 27.4031 7.99998 26.6667V5.33334Z" fill="#292F36"/>
</g>
</g>
</svg>
