<svg width="17" height="16" viewBox="0 0 17 16" fill="none" xmlns="http://www.w3.org/2000/svg">
<path fill-rule="evenodd" clip-rule="evenodd" d="M7.16035 5.01249C7.78268 4.68957 8.49099 4.57111 9.18452 4.67396C9.89196 4.77886 10.5469 5.10851 11.0526 5.61421C11.5583 6.11991 11.888 6.77485 11.9929 7.48229C12.0957 8.17583 11.9772 8.88414 11.6543 9.50647C11.3314 10.1288 10.8205 10.6335 10.1942 10.9487C9.56795 11.2639 8.85823 11.3736 8.16601 11.2622C7.4738 11.1508 6.83432 10.824 6.33856 10.3283C5.84279 9.83249 5.51597 9.19302 5.40458 8.5008C5.29319 7.80858 5.40291 7.09887 5.71813 6.4726C6.03335 5.84633 6.53801 5.33541 7.16035 5.01249ZM8.98895 5.99287C8.57282 5.93116 8.14784 6.00224 7.77444 6.19599C7.40104 6.38974 7.09824 6.69629 6.90911 7.07205C6.71998 7.44781 6.65415 7.87364 6.72098 8.28897C6.78781 8.7043 6.9839 9.08799 7.28137 9.38545C7.57883 9.68291 7.96251 9.879 8.37784 9.94583C8.79317 10.0127 9.219 9.94683 9.59476 9.7577C9.97052 9.56857 10.2771 9.26577 10.4708 8.89237C10.6646 8.51898 10.7357 8.09399 10.6739 7.67787C10.611 7.25341 10.4132 6.86044 10.1098 6.55702C9.80637 6.2536 9.41341 6.05581 8.98895 5.99287Z" fill="#292F36"/>
<path d="M12.3334 3.66675C11.9652 3.66675 11.6668 3.96522 11.6668 4.33341C11.6668 4.7016 11.9652 5.00008 12.3334 5.00008H12.3401C12.7083 5.00008 13.0068 4.7016 13.0068 4.33341C13.0068 3.96522 12.7083 3.66675 12.3401 3.66675H12.3334Z" fill="#292F36"/>
<path fill-rule="evenodd" clip-rule="evenodd" d="M1.33344 4.66675C1.33344 2.45761 3.1243 0.666748 5.33343 0.666748H12.0001C14.2092 0.666748 16.0001 2.45761 16.0001 4.66675V11.3334C16.0001 13.5426 14.2092 15.3334 12.0001 15.3334H5.33343C3.1243 15.3334 1.33344 13.5426 1.33344 11.3334V4.66675ZM5.33343 2.00008C3.86068 2.00008 2.66677 3.19399 2.66677 4.66675V11.3334C2.66677 12.8062 3.86068 14.0001 5.33343 14.0001H12.0001C13.4729 14.0001 14.6668 12.8062 14.6668 11.3334V4.66675C14.6668 3.19399 13.4729 2.00008 12.0001 2.00008H5.33343Z" fill="#292F36"/>
</svg>
