<svg width="14" height="14" viewBox="0 0 14 14" fill="none" xmlns="http://www.w3.org/2000/svg">
<g id="icon-briefcase">
<path id="Shape" fill-rule="evenodd" clip-rule="evenodd" d="M5.83334 1.16663C5.36921 1.16663 4.9241 1.351 4.59591 1.67919C4.26772 2.00738 4.08334 2.4525 4.08334 2.91663V3.49996H2.33334C1.36685 3.49996 0.583344 4.28346 0.583344 5.24996V11.0833C0.583344 12.0498 1.36685 12.8333 2.33334 12.8333H11.6667C12.6332 12.8333 13.4167 12.0498 13.4167 11.0833V5.24996C13.4167 4.28346 12.6332 3.49996 11.6667 3.49996H9.91668V2.91663C9.91668 2.4525 9.7323 2.00738 9.40411 1.67919C9.07593 1.351 8.63081 1.16663 8.16668 1.16663H5.83334ZM8.75001 3.49996V2.91663C8.75001 2.76192 8.68855 2.61354 8.57916 2.50415C8.46976 2.39475 8.32139 2.33329 8.16668 2.33329H5.83334C5.67863 2.33329 5.53026 2.39475 5.42086 2.50415C5.31147 2.61354 5.25001 2.76192 5.25001 2.91663V3.49996H8.75001ZM5.25001 4.66663H8.75001V11.6666H5.25001V4.66663ZM4.08334 4.66663H2.33334C2.01118 4.66663 1.75001 4.92779 1.75001 5.24996V11.0833C1.75001 11.4055 2.01118 11.6666 2.33334 11.6666H4.08334V4.66663ZM9.91668 11.6666V4.66663H11.6667C11.9888 4.66663 12.25 4.92779 12.25 5.24996V11.0833C12.25 11.4055 11.9888 11.6666 11.6667 11.6666H9.91668Z" fill="#12F7D6"/>
</g>
</svg>
