<svg width="34" height="150" viewBox="0 0 34 150" fill="none" xmlns="http://www.w3.org/2000/svg">
<g clip-path="url(#clip0_6_2618)">
<path fill-rule="evenodd" clip-rule="evenodd" d="M1 16C1 7.16344 8.16344 0 17 0C25.8366 0 33 7.16344 33 16V28C33 36.8366 25.8366 44 17 44H15V43.8762C7.10738 42.892 1 36.1592 1 28V16ZM17 40C23.6274 40 29 34.6274 29 28V16C29 9.37258 23.6274 4 17 4C10.3726 4 5 9.37258 5 16V28C5 34.6274 10.3726 40 17 40Z" fill="#12F7D6"/>
<path d="M18.3333 9.16663V16.5H15.6667V9.16663H18.3333Z" fill="#12F7D6"/>
</g>
<path d="M17.5 60C17.5 59.7239 17.2761 59.5 17 59.5C16.7239 59.5 16.5 59.7239 16.5 60H17.5ZM17 142.887L19.8868 140L17 137.113L14.1132 140L17 142.887ZM16.5 62.8571C16.5 63.1333 16.7239 63.3571 17 63.3571C17.2761 63.3571 17.5 63.1333 17.5 62.8571H16.5ZM17.5 68.5714C17.5 68.2953 17.2761 68.0714 17 68.0714C16.7239 68.0714 16.5 68.2953 16.5 68.5714H17.5ZM16.5 74.2857C16.5 74.5619 16.7239 74.7857 17 74.7857C17.2761 74.7857 17.5 74.5619 17.5 74.2857H16.5ZM17.5 80C17.5 79.7239 17.2761 79.5 17 79.5C16.7239 79.5 16.5 79.7239 16.5 80H17.5ZM16.5 85.7143C16.5 85.9904 16.7239 86.2143 17 86.2143C17.2761 86.2143 17.5 85.9904 17.5 85.7143H16.5ZM17.5 91.4286C17.5 91.1524 17.2761 90.9286 17 90.9286C16.7239 90.9286 16.5 91.1524 16.5 91.4286H17.5ZM16.5 97.1429C16.5 97.419 16.7239 97.6429 17 97.6429C17.2761 97.6429 17.5 97.419 17.5 97.1429H16.5ZM17.5 102.857C17.5 102.581 17.2761 102.357 17 102.357C16.7239 102.357 16.5 102.581 16.5 102.857H17.5ZM16.5 108.571C16.5 108.848 16.7239 109.071 17 109.071C17.2761 109.071 17.5 108.848 17.5 108.571H16.5ZM17.5 114.286C17.5 114.01 17.2761 113.786 17 113.786C16.7239 113.786 16.5 114.01 16.5 114.286H17.5ZM16.5 120C16.5 120.276 16.7239 120.5 17 120.5C17.2761 120.5 17.5 120.276 17.5 120H16.5ZM17.5 125.714C17.5 125.438 17.2761 125.214 17 125.214C16.7239 125.214 16.5 125.438 16.5 125.714H17.5ZM16.5 131.429C16.5 131.705 16.7239 131.929 17 131.929C17.2761 131.929 17.5 131.705 17.5 131.429H16.5ZM17.5 137.143C17.5 136.867 17.2761 136.643 17 136.643C16.7239 136.643 16.5 136.867 16.5 137.143H17.5ZM16.5 60V62.8571H17.5V60H16.5ZM16.5 68.5714L16.5 74.2857H17.5L17.5 68.5714H16.5ZM16.5 80V85.7143H17.5V80H16.5ZM16.5 91.4286V97.1429H17.5V91.4286H16.5ZM16.5 102.857V108.571H17.5V102.857H16.5ZM16.5 114.286V120H17.5V114.286H16.5ZM16.5 125.714L16.5 131.429H17.5L17.5 125.714H16.5ZM16.5 137.143V140H17.5V137.143H16.5ZM17.5 60C17.5 59.7239 17.2761 59.5 17 59.5C16.7239 59.5 16.5 59.7239 16.5 60H17.5ZM17 142.887L19.8868 140L17 137.113L14.1132 140L17 142.887ZM16.5 62.8571C16.5 63.1333 16.7239 63.3571 17 63.3571C17.2761 63.3571 17.5 63.1333 17.5 62.8571H16.5ZM17.5 68.5714C17.5 68.2953 17.2761 68.0714 17 68.0714C16.7239 68.0714 16.5 68.2953 16.5 68.5714H17.5ZM16.5 74.2857C16.5 74.5619 16.7239 74.7857 17 74.7857C17.2761 74.7857 17.5 74.5619 17.5 74.2857H16.5ZM17.5 80C17.5 79.7239 17.2761 79.5 17 79.5C16.7239 79.5 16.5 79.7239 16.5 80H17.5ZM16.5 85.7143C16.5 85.9904 16.7239 86.2143 17 86.2143C17.2761 86.2143 17.5 85.9904 17.5 85.7143H16.5ZM17.5 91.4286C17.5 91.1524 17.2761 90.9286 17 90.9286C16.7239 90.9286 16.5 91.1524 16.5 91.4286H17.5ZM16.5 97.1429C16.5 97.419 16.7239 97.6429 17 97.6429C17.2761 97.6429 17.5 97.419 17.5 97.1429H16.5ZM17.5 102.857C17.5 102.581 17.2761 102.357 17 102.357C16.7239 102.357 16.5 102.581 16.5 102.857H17.5ZM16.5 108.571C16.5 108.848 16.7239 109.071 17 109.071C17.2761 109.071 17.5 108.848 17.5 108.571H16.5ZM17.5 114.286C17.5 114.01 17.2761 113.786 17 113.786C16.7239 113.786 16.5 114.01 16.5 114.286H17.5ZM16.5 120C16.5 120.276 16.7239 120.5 17 120.5C17.2761 120.5 17.5 120.276 17.5 120H16.5ZM17.5 125.714C17.5 125.438 17.2761 125.214 17 125.214C16.7239 125.214 16.5 125.438 16.5 125.714H17.5ZM16.5 131.429C16.5 131.705 16.7239 131.929 17 131.929C17.2761 131.929 17.5 131.705 17.5 131.429H16.5ZM17.5 137.143C17.5 136.867 17.2761 136.643 17 136.643C16.7239 136.643 16.5 136.867 16.5 137.143H17.5ZM16.5 60V62.8571H17.5V60H16.5ZM16.5 68.5714L16.5 74.2857H17.5L17.5 68.5714H16.5ZM16.5 80V85.7143H17.5V80H16.5ZM16.5 91.4286V97.1429H17.5V91.4286H16.5ZM16.5 102.857V108.571H17.5V102.857H16.5ZM16.5 114.286V120H17.5V114.286H16.5ZM16.5 125.714L16.5 131.429H17.5L17.5 125.714H16.5ZM16.5 137.143V140H17.5V137.143H16.5Z" fill="white"/>
<defs>
<clipPath id="clip0_6_2618">
<rect width="32" height="44" fill="white" transform="translate(1)"/>
</clipPath>
</defs>
</svg>
